HIERARCHY
ROOT hip
{
	OFFSET 0.000000 0.000000 0.000000 
	CHANNELS 6 Xposition Yposition Zposition Xrotation Zrotation Yrotation
	JOINT abdomen
	{
		OFFSET 0.000000 3.402643 0.000000 
		CHANNELS 3 Xrotation Zrotation Yrotation
		JOINT chest
		{
			OFFSET 0.000000 8.438565 -0.680529 
			CHANNELS 3 Xrotation Zrotation Yrotation
			JOINT neck
			{
				OFFSET 0.000000 10.207942 -0.272212 
				CHANNELS 3 Xrotation Zrotation Yrotation
				JOINT head
				{
					OFFSET 0.000000 3.130431 0.000000 
					CHANNELS 3 Xrotation Zrotation Yrotation
					End Site
					{
						OFFSET 0.000000 3.130435 0.000000 
					}
				}
			}
			JOINT lCollar
			{
				OFFSET 3.470700 6.669187 -0.816635 
				CHANNELS 3 Yrotation Zrotation Xrotation
				JOINT lShldr
				{
					OFFSET 3.198488 0.000000 0.000000 
					CHANNELS 3 Zrotation Yrotation Xrotation
					JOINT lForeArm
					{
						OFFSET 10.139888 0.000000 0.000000 
						CHANNELS 3 Yrotation Zrotation Xrotation
						JOINT lHand
						{
							OFFSET 8.370511 0.000000 0.000000 
							CHANNELS 3 Zrotation Yrotation Xrotation
							End Site
							{
								OFFSET 4.083176 0.000000 0.000000 
							}
						}
					}
				}
			}
			JOINT rCollar
			{
				OFFSET -3.470700 6.669187 -0.816635 
				CHANNELS 3 Yrotation Zrotation Xrotation
				JOINT rShldr
				{
					OFFSET -3.198488 0.000000 0.000000 
					CHANNELS 3 Zrotation Yrotation Xrotation
					JOINT rForeArm
					{
						OFFSET -10.139888 0.000000 0.000000 
						CHANNELS 3 Yrotation Zrotation Xrotation
						JOINT rHand
						{
							OFFSET -8.370511 0.000000 0.000000 
							CHANNELS 3 Zrotation Yrotation Xrotation
							End Site
							{
								OFFSET -4.083176 0.000000 0.000000 
							}
						}
					}
				}
			}
		}
	}
	JOINT lThigh
	{
		OFFSET 5.308129 -1.633274 1.361059 
		CHANNELS 3 Xrotation Zrotation Yrotation
		JOINT lShin
		{
			OFFSET -2.041588 -20.007561 0.000000 
			CHANNELS 3 Xrotation Zrotation Yrotation
			JOINT lFoot
			{
				OFFSET 0.000000 -19.190928 -1.224953 
				CHANNELS 3 Xrotation Yrotation Zrotation
				End Site
				{
					OFFSET 0.000000 -2.449906 4.627600 
				}
			}
		}
	}
	JOINT rThigh
	{
		OFFSET -5.308129 -1.633274 1.361059 
		CHANNELS 3 Xrotation Zrotation Yrotation
		JOINT rShin
		{
			OFFSET 2.041588 -20.007561 0.000000 
			CHANNELS 3 Xrotation Zrotation Yrotation
			JOINT rFoot
			{
				OFFSET 0.000000 -19.190928 -1.224953 
				CHANNELS 3 Xrotation Yrotation Zrotation
				End Site
				{
					OFFSET 0.000000 -2.449906 4.627600 
				}
			}
		}
	}
}
MOTION
Frames: 6
Frame Time: 0.033000
198.366333 41.744110 231.340424 7.085691 -9.294963 32.521030 21.238848 0.485352 1.058234 -20.839844 0.000000 0.000000 -7.700112 9.159964 8.917010 -2.520832 -1.255077 0.218355 -4.754609 -0.109184 -0.002653 -60.245007 4.584463 13.704300 -89.667328 -0.158629 4.027972 5.717799 -0.842318 0.114420 4.754609 0.109184 -0.002672 71.100334 -21.071875 26.664879 99.592537 -0.434858 18.277193 1.797875 6.623351 0.147254 -38.644096 14.273358 6.143195 86.803825 -0.058068 -5.298459 0.576562 -0.328864 4.130379 -23.658215 2.724020 -4.856595 30.587431 3.093439 2.069075 -14.833531 0.630938 -4.331238 
200.829575 42.391907 234.062073 8.014066 -8.762596 32.305920 21.178171 0.220174 1.205911 -20.839844 0.000000 0.000000 -7.236856 8.155729 9.014145 -2.520832 -1.255077 0.218355 -4.754609 -0.109184 -0.002653 -62.763832 10.090042 14.226836 -86.493492 -0.186836 1.985481 6.907042 -2.231288 0.075907 4.754609 0.109184 -0.002672 68.222931 -14.172806 31.677065 102.700569 -0.451987 18.514206 -5.998790 7.016891 -0.203376 -43.411774 13.005420 5.730412 81.465508 -0.340551 -3.423528 -1.488027 -0.358800 4.319361 -17.128798 0.575762 -5.637770 25.850790 3.455977 4.347935 -13.968946 0.351382 -1.885309 
203.469498 43.543335 236.998520 8.773810 -7.828400 33.082058 21.088831 -0.106229 1.267356 -20.839844 0.000000 0.000000 -6.709780 7.907014 7.772718 -2.520832 -1.255077 0.218355 -4.754609 -0.109184 -0.002653 -64.200836 15.600109 14.887568 -87.057655 -0.185211 2.344764 6.116437 -2.886911 0.050407 4.754609 0.109184 -0.002672 64.873810 -9.673478 35.902027 108.240906 -0.451606 18.158829 -14.130941 6.952145 -0.589922 -44.310001 10.534830 5.473137 70.122742 -1.090582 -3.063849 -2.457209 -0.384120 4.025245 -6.245589 -1.629102 -7.123395 12.531513 4.119249 6.104376 -5.943031 -0.324668 1.924157 
206.208939 44.837906 240.049149 9.032479 -6.462523 34.746372 21.069700 -0.361343 1.168923 -20.839844 0.000000 0.000000 -5.961175 7.543631 5.709404 -2.520832 -1.255077 0.218355 -4.754609 -0.109184 -0.002653 -65.124161 20.637045 16.166948 -88.318329 -0.149953 4.920845 5.355670 -3.405555 0.029824 4.754609 0.109184 -0.002672 61.405388 -7.800571 39.281281 113.872299 -0.437748 17.434000 -20.134329 6.412379 -0.804600 -41.242836 7.439353 5.072204 53.428005 -2.211136 -4.232940 -0.856566 -0.306813 1.745450 6.129920 -2.948507 -8.451145 -3.825961 4.214309 5.088120 8.137402 0.032508 5.552100 
208.991043 45.874084 243.098770 8.893241 -5.123540 36.728420 21.119911 -0.541790 0.984134 -20.839844 0.000000 0.000000 -5.007563 6.875444 3.711072 -2.520832 -1.255077 0.218355 -4.754609 -0.109184 -0.002653 -65.563911 24.561743 17.918575 -89.760796 -0.125363 6.138883 5.042788 -3.581223 0.036073 4.754609 0.109184 -0.002672 58.346939 -7.933678 42.071941 118.066856 -0.438877 17.343771 -23.127766 6.662662 -0.983382 -34.480629 4.404361 3.694909 31.194973 -3.364171 -3.997047 3.919250 -0.381140 -3.882593 11.143498 -4.226410 -11.366252 -5.132518 4.231980 5.546961 18.630337 0.487766 4.916425 
211.785339 46.334045 246.104172 8.394341 -4.424931 37.833717 21.169491 -0.608493 0.884856 -20.839844 0.000000 0.000000 -4.023871 6.565228 2.684388 -2.520832 -1.255077 0.218355 -4.754609 -0.109184 -0.002653 -64.971611 27.195951 19.324566 -91.953033 -0.127962 5.664261 5.022614 -2.916189 0.051448 4.754609 0.109184 -0.002672 55.747169 -8.778660 45.162193 120.286270 -0.515867 19.623924 -24.331207 7.618309 -1.226552 -21.739666 2.869817 -1.328753 -1.383030 -3.742646 3.553143 15.055030 -0.999309 -9.869338 15.383664 -4.579504 -12.906258 -5.565647 4.186524 4.062276 28.398247 0.408221 2.029177 
